<svg xmlns="http://www.w3.org/2000/svg" viewBox="0 0 153.19 125.39"><defs><style>.cls-1{fill:#1d1d1b;}</style></defs><g id="Camada_2" data-name="Camada 2"><g id="Camada_2-2" data-name="Camada 2"><path class="cls-1" d="M152.21,76.55,136.77,20.26A27.55,27.55,0,0,0,83.64,34.83L96.52,81.77a27.32,27.32,0,0,0-5.8-5.92L44.08,40.76A27.51,27.51,0,0,0,.28,66.61,27.3,27.3,0,0,0,11,84.77l46.64,35.1a27.58,27.58,0,0,0,38.57-5.45h0a27.45,27.45,0,0,0,5.51-17,27.55,27.55,0,0,0,50.53-20.87ZM5.23,65.91A22.53,22.53,0,0,1,41.08,44.75l21.32,16-27.11,36L14,80.78A22.37,22.37,0,0,1,5.23,65.91Zm86.94,45.5a22.58,22.58,0,0,1-31.57,4.46l-21.32-16,27.11-36,21.32,16A22.58,22.58,0,0,1,92.17,111.41Zm-1.53-95A22.52,22.52,0,0,1,132,21.58L139,47.32,95.52,59.24l-7-25.73A22.37,22.37,0,0,1,90.64,16.4ZM145.21,95a22.55,22.55,0,0,1-41.31-5.18L96.85,64.06l43.48-11.92,7,25.73A22.35,22.35,0,0,1,145.21,95Z"/></g></g></svg>