<svg xmlns="http://www.w3.org/2000/svg" viewBox="0 0 127.66 127.66"><defs><style>.cls-1{fill:#1d1d1b;}</style></defs><g id="Camada_2" data-name="Camada 2"><g id="Camada_2-2" data-name="Camada 2"><path class="cls-1" d="M126.93,123.39l-16.05-16-.53-23.89a1.11,1.11,0,0,1,0-.17c0-.1,0-.2,0-.3l-.06-.2c0-.09,0-.18-.09-.27l-.09-.16a1.82,1.82,0,0,0-.15-.27l-.1-.11a2,2,0,0,0-.19-.24l-66-66A6.54,6.54,0,0,0,39,13.78a6.32,6.32,0,0,0-4.62,1.89l-7.57,7.58L19.52,16,31.23,4.27A2.5,2.5,0,0,0,27.7.73l-27,27a2.5,2.5,0,1,0,3.54,3.53L16,19.52l7.27,7.27-7.58,7.57A6.43,6.43,0,0,0,13.78,39a6.54,6.54,0,0,0,1.93,4.6L43.07,70.94h0L61.79,89.66h0l6.78,6.78h0l13.17,13.17.13.11.23.19.2.11a2.53,2.53,0,0,0,.23.12,1.13,1.13,0,0,0,.24.08l.22.07a1.43,1.43,0,0,0,.29,0l.18,0,23.89.53,16,16.05a2.5,2.5,0,0,0,3.54-3.54Zm-42.36-18-10.7-10.7L86.08,82.46a2.5,2.5,0,1,0-3.53-3.53L70.34,91.14l-3.25-3.25,8.69-8.69a2.5,2.5,0,0,0-3.54-3.53l-8.68,8.68-7.3-7.29,13-13a2.5,2.5,0,1,0-3.54-3.53l-13,13-4.36-4.36,6.28-6.27a2.5,2.5,0,0,0-3.54-3.54l-6.27,6.28-5.08-5.08,20.8-20.8,44.81,44.81.48,21.28ZM18.78,39a1.47,1.47,0,0,1,.43-1.05L37.9,19.21a1.52,1.52,0,0,1,2.14,0l17,17L36.23,57l-17-17A1.55,1.55,0,0,1,18.78,39Z"/></g></g></svg>