<svg xmlns="http://www.w3.org/2000/svg" viewBox="0 0 133.02 127.18"><defs><style>.cls-1{fill:#1d1d1b;}.cls-2{fill:none;}</style></defs><g id="Camada_2" data-name="Camada 2"><g id="Camada_2-2" data-name="Camada 2"><path class="cls-1" d="M98.56,91.75,67.91,9.49A14.61,14.61,0,0,0,49.15.92L9.49,15.7A14.61,14.61,0,0,0,.92,34.46l30.65,82.25a14.65,14.65,0,0,0,13.69,9.49,14.37,14.37,0,0,0,5.07-.92L90,110.5A14.59,14.59,0,0,0,98.56,91.75ZM88.24,105.82,48.58,120.6A9.61,9.61,0,0,1,36.26,115L5.61,32.71a9.61,9.61,0,0,1,5.63-12.33L50.9,5.6A9.5,9.5,0,0,1,54.22,5a9.69,9.69,0,0,1,4,.88,9.5,9.5,0,0,1,5,5.36L93.88,93.49A9.61,9.61,0,0,1,88.24,105.82Z"/><rect class="cls-1" x="47.99" y="21.26" width="4" height="84.77" transform="translate(-18.9 21.18) rotate(-20.21)"/><path class="cls-1" d="M32.39,29.51a11.06,11.06,0,1,0-6.53,14.2A11,11,0,0,0,32.39,29.51Zm-16,8.05,6.33-2.34-1.38-3.75L15,33.81A7.06,7.06,0,0,1,22,26.29a7.06,7.06,0,0,1,2.94.65,7,7,0,0,1,3.66,4,7,7,0,0,1-12.25,6.66Z"/><path class="cls-1" d="M52.31,33.2a10.9,10.9,0,0,0,3.82-.69,11.05,11.05,0,1,0-7.67-20.73A11.07,11.07,0,0,0,41.93,26,11.09,11.09,0,0,0,52.31,33.2Zm-6.42-14a7,7,0,0,1,9.36-3.46,7,7,0,0,1,3.66,4,7,7,0,0,1-12.26,6.66L53,24l-1.38-3.75-6.35,2.34A7,7,0,0,1,45.89,19.2Z"/><path class="cls-1" d="M45,64.87A11.05,11.05,0,1,0,34.61,79.75,11,11,0,0,0,45,64.87Zm-16,8,6.34-2.34-1.39-3.75-6.34,2.34a7.07,7.07,0,0,1,4.58-7.08,7.08,7.08,0,0,1,5.4.2A7.05,7.05,0,1,1,29,72.92Z"/><path class="cls-1" d="M54.84,52.88a11,11,0,0,0,10,15.67A11,11,0,0,0,75.25,53.67a11.06,11.06,0,0,0-20.41-.79Zm10-2.43a7.05,7.05,0,1,1-5.65,11.27l6.34-2.34-1.38-3.76L57.85,58a7,7,0,0,1,4.58-7.08A7,7,0,0,1,64.88,50.45Z"/><path class="cls-1" d="M44.35,94.78a11.06,11.06,0,1,0,14.2,6.54A11.06,11.06,0,0,0,44.35,94.78ZM54.59,108.1a7.05,7.05,0,0,1-12.05,1.27L48.88,107l-1.39-3.76-6.34,2.35a7,7,0,0,1,4.59-7.08,7,7,0,0,1,2.44-.44,7,7,0,0,1,6.41,10Z"/><path class="cls-1" d="M88.83,90.11A11.05,11.05,0,0,0,68.1,97.78a11,11,0,0,0,14.2,6.53,11.07,11.07,0,0,0,6.53-14.2Zm-7.92,10.45a7,7,0,0,1-5.39-.2,7.09,7.09,0,0,1-2.71-2.19l6.35-2.34-1.39-3.76-6.34,2.35A7,7,0,0,1,76,87.34a6.9,6.9,0,0,1,2.43-.44,7,7,0,0,1,2.46,13.66Z"/><path class="cls-2" d="M108.62,40.79a7.07,7.07,0,0,0,8.08-2.44l-6.35-2.3,1.36-3.77,6.36,2.31a7.08,7.08,0,0,0-4.64-7.06,7.06,7.06,0,0,0-9,4.23A7.05,7.05,0,0,0,108.62,40.79Z"/><path class="cls-1" d="M131.64,24a14.46,14.46,0,0,0-8.21-7.56L83.68,1.93a14.48,14.48,0,0,0-11.15.49,14.73,14.73,0,0,0-3,1.9,16.39,16.39,0,0,1,1.06,2.24l1,2.66A9.58,9.58,0,0,1,82,6.62l39.76,14.51a9.63,9.63,0,0,1,5.72,12.29L103.89,98a15.5,15.5,0,0,1-4.17,11.43l-2.37,6.5a9.63,9.63,0,0,1-12.29,5.72l-6.82-2.49L71,121.8l12.32,4.49a14.39,14.39,0,0,0,5.08.89,14.73,14.73,0,0,0,6.07-1.38,14.44,14.44,0,0,0,7.55-8.21l30.09-82.46A14.42,14.42,0,0,0,131.64,24Z"/><polygon class="cls-1" points="99.51 25.45 95.75 24.1 86.58 49.54 88.74 55.34 99.51 25.45"/><path class="cls-1" d="M107.26,44.56a11.19,11.19,0,0,0,3.83.66,11.06,11.06,0,0,0,3.7-21.45,11.08,11.08,0,0,0-14.16,6.63A11.08,11.08,0,0,0,107.26,44.56Zm-2.86-12.8a7.05,7.05,0,0,1,13.67,2.83l-6.36-2.31-1.36,3.77,6.35,2.3a7,7,0,0,1-12.3-6.59Z"/><path class="cls-1" d="M77.68,16.78a7.25,7.25,0,0,1,2.94-.67,7.1,7.1,0,0,1,2.45.43,7,7,0,0,1,4.64,7.05l-6.36-2.3L80,25.05l6.36,2.3a7.07,7.07,0,0,1-7,2.74l1.54,4.13A11.05,11.05,0,1,0,76,13.16a11.26,11.26,0,0,0-2.4,1.53l1.54,4.13A7.08,7.08,0,0,1,77.68,16.78Z"/><path class="cls-1" d="M95.7,63.22a7,7,0,0,1,2.93-.67,7.2,7.2,0,0,1,2.46.43A7.05,7.05,0,0,1,105.72,70l-6.35-2.3L98,71.49l6.35,2.3a7.06,7.06,0,0,1-7.81,2.52l1.62,4.33.58,0a11,11,0,0,0,3.7-21.44A11,11,0,0,0,91.07,61.6l1.61,4.31A7,7,0,0,1,95.7,63.22Z"/></g></g></svg>