<svg xmlns="http://www.w3.org/2000/svg" viewBox="0 0 125.34 127.48"><defs><style>.cls-1{fill:#1d1d1b;}</style></defs><g id="Camada_2" data-name="Camada 2"><g id="Camada_2-2" data-name="Camada 2"><path class="cls-1" d="M115,29.65h0l-.3-.07h0c-1.46-.32-6.94-1.83-9-6.57a9.31,9.31,0,0,1-.49-1.52h8.85a6.74,6.74,0,0,0,6.73-6.73v-8A6.74,6.74,0,0,0,114.11,0h-62a6.74,6.74,0,0,0-6.73,6.73v8a6.74,6.74,0,0,0,6.73,6.73h8.85A9.31,9.31,0,0,1,60.45,23c-2,4.74-7.51,6.25-9,6.57h0l-.28.06h0A13.3,13.3,0,0,0,40.86,42.59V65.34a31,31,0,1,0,3.3,57.56,13.22,13.22,0,0,0,10,4.58h57.92a13.3,13.3,0,0,0,13.28-13.28V42.59A13.3,13.3,0,0,0,115,29.65ZM52.09,16.43a1.68,1.68,0,0,1-1.68-1.68v-8a1.68,1.68,0,0,1,1.68-1.68h7.22v6.67h5V5.05h5.7v6.67h5V5.05H80.8v6.67h5V5.05h5.7v6.67h5V5.05h5.69v6.67h5V5.05h6.77a1.68,1.68,0,0,1,1.68,1.68v8a1.68,1.68,0,0,1-1.68,1.68ZM104,29.3H62.21A14.27,14.27,0,0,0,65.09,25a14.61,14.61,0,0,0,1-3.52h34a14.61,14.61,0,0,0,1,3.52A14.27,14.27,0,0,0,104,29.3ZM52.45,34.53h0a8.07,8.07,0,0,1,1.64-.17h57.92a8.07,8.07,0,0,1,1.64.17h0a8.23,8.23,0,0,1,6.53,7.69H45.93A8.23,8.23,0,0,1,52.45,34.53ZM5,94.78A26,26,0,0,1,47.42,74.56L10.66,111A25.93,25.93,0,0,1,5,94.78Zm9.14,19.78L51,78.07a26,26,0,0,1-36.85,36.49Zm106.15-.36a8.24,8.24,0,0,1-8.23,8.23H54.14a8.17,8.17,0,0,1-5.48-2.12A31.17,31.17,0,0,0,60,106h60.3Zm0-13.29H61.47A31,31,0,0,0,45.91,67.54V47.27h74.38Z"/><path class="cls-1" d="M68.62,82.48h5.11v5.11a5.65,5.65,0,0,0,5.65,5.65h5.87a5.66,5.66,0,0,0,5.66-5.65V82.48H96a5.66,5.66,0,0,0,5.66-5.65V71A5.67,5.67,0,0,0,96,65.3h-5.1V60.2a5.67,5.67,0,0,0-5.66-5.66H79.38a5.66,5.66,0,0,0-5.65,5.66v5.1H68.62A5.66,5.66,0,0,0,63,71v5.87A5.65,5.65,0,0,0,68.62,82.48ZM68,71a.6.6,0,0,1,.6-.61H78.78V60.2a.6.6,0,0,1,.6-.61h5.87a.61.61,0,0,1,.61.61V70.35H96a.61.61,0,0,1,.61.61v5.87a.6.6,0,0,1-.61.6H85.86V87.59a.6.6,0,0,1-.61.6H79.38a.6.6,0,0,1-.6-.6V77.43H68.62a.6.6,0,0,1-.6-.6Z"/></g></g></svg>